<svg xmlns="http://www.w3.org/2000/svg" xmlns:xlink="http://www.w3.org/1999/xlink" width="500" zoomAndPan="magnify" viewBox="0 0 375 374.999991" height="500" preserveAspectRatio="xMidYMid meet" version="1.0"><defs><clipPath id="703785e8be"><path d="M 23 91.074219 L 352 91.074219 L 352 283.824219 L 23 283.824219 Z M 23 91.074219 " clip-rule="nonzero"/></clipPath></defs><rect x="-37.5" width="450" fill="#ffffff" y="-37.499999" height="449.999989" fill-opacity="1"/><rect x="-37.5" width="450" fill="#000000" y="-37.499999" height="449.999989" fill-opacity="1"/><g clip-path="url(#703785e8be)"><path fill="#ffffff" d="M 55.320312 91.074219 C 37.671875 91.074219 23.324219 105.433594 23.324219 123.089844 L 23.324219 180.257812 C 23.324219 197.914062 37.675781 212.273438 55.320312 212.273438 L 183.542969 212.273438 C 185.703125 212.273438 187.453125 210.523438 187.453125 208.363281 C 187.453125 206.207031 185.703125 204.457031 183.542969 204.457031 L 55.320312 204.457031 C 41.988281 204.457031 31.140625 193.601562 31.140625 180.257812 L 31.140625 123.089844 C 31.140625 109.746094 41.988281 98.894531 55.320312 98.894531 L 296.867188 98.894531 C 299.03125 98.894531 300.777344 97.140625 300.777344 94.984375 C 300.777344 92.824219 299.03125 91.074219 296.867188 91.074219 Z M 257.332031 126.304688 C 256.960938 126.351562 256.589844 126.449219 256.234375 126.605469 C 254.808594 127.226562 253.882812 128.628906 253.882812 130.1875 L 253.882812 253.546875 C 253.882812 255.113281 254.808594 256.527344 256.242188 257.144531 C 257.675781 257.761719 259.34375 257.457031 260.476562 256.382812 L 287.070312 231.089844 L 308.753906 281.277344 C 309.167969 282.238281 309.953125 282.988281 310.933594 283.367188 C 311.382812 283.539062 311.863281 283.636719 312.339844 283.636719 C 312.894531 283.636719 313.441406 283.511719 313.957031 283.277344 L 330.398438 275.800781 C 332.359375 274.910156 333.234375 272.605469 332.34375 270.636719 L 309.949219 221.085938 L 347.800781 217.828125 C 349.339844 217.695312 350.652344 216.660156 351.15625 215.199219 C 351.664062 213.738281 351.261719 212.117188 350.136719 211.0625 L 260.453125 127.328125 C 259.597656 126.53125 258.453125 126.175781 257.332031 126.304688 Z M 195.59375 126.742188 L 178.523438 170.246094 L 185.03125 170.246094 L 202.160156 126.742188 Z M 218.910156 126.742188 L 201.839844 170.246094 L 208.347656 170.246094 L 225.476562 126.742188 Z M 66.3125 130.125 L 66.3125 166.046875 L 72.570312 166.046875 L 72.570312 153.109375 C 72.570312 149.3125 75.136719 146.183594 78.828125 146.183594 C 82.164062 146.183594 84.566406 148.132812 84.566406 152.75 L 84.566406 166.046875 L 90.824219 166.046875 L 90.824219 152.699219 C 90.824219 145.261719 87.648438 140.386719 80.46875 140.386719 C 77.601562 140.386719 74.828125 141.257812 72.570312 144.183594 L 72.570312 130.125 Z M 104.914062 133.621094 L 98.65625 134.285156 L 98.65625 140.808594 L 93.941406 140.808594 L 93.941406 146.191406 L 98.65625 146.191406 L 98.65625 157.117188 C 98.652344 163.425781 102.242188 166.558594 107.730469 166.351562 C 109.625 166.300781 111.121094 165.988281 112.914062 165.273438 L 111.167969 159.9375 C 110.242188 160.398438 109.121094 160.707031 108.144531 160.707031 C 106.199219 160.707031 104.863281 159.527344 104.863281 157.117188 L 104.863281 146.191406 L 111.890625 146.191406 L 111.890625 140.808594 L 104.914062 140.808594 Z M 125.371094 133.621094 L 119.109375 134.285156 L 119.109375 140.808594 L 114.394531 140.808594 L 114.394531 146.191406 L 119.109375 146.191406 L 119.109375 157.117188 C 119.109375 163.425781 122.699219 166.558594 128.1875 166.351562 C 130.082031 166.300781 131.574219 165.988281 133.367188 165.273438 L 131.621094 159.9375 C 130.699219 160.398438 129.574219 160.707031 128.597656 160.707031 C 126.652344 160.707031 125.316406 159.527344 125.316406 157.117188 L 125.316406 146.191406 L 132.339844 146.191406 L 132.339844 140.808594 L 125.371094 140.808594 Z M 151.464844 140.179688 C 148.585938 140.183594 145.203125 141.414062 143.253906 144.238281 L 142.847656 140.746094 L 137 140.746094 L 137 176.605469 L 143.261719 176.605469 L 143.261719 163.058594 C 145.054688 165.828125 149.003906 166.648438 151.671875 166.648438 C 159.773438 166.648438 164.441406 160.800781 164.441406 153.414062 C 164.441406 145.976562 159.257812 140.179688 151.464844 140.179688 Z M 263.042969 140.441406 L 338.375 210.785156 L 303.785156 213.773438 C 302.519531 213.882812 301.394531 214.585938 300.753906 215.679688 C 300.113281 216.777344 300.039062 218.113281 300.5625 219.269531 L 323.613281 270.292969 L 314.347656 274.511719 L 292.015625 222.835938 C 291.507812 221.664062 290.46875 220.8125 289.214844 220.558594 C 288.957031 220.507812 288.683594 220.484375 288.425781 220.484375 C 287.433594 220.484375 286.464844 220.855469 285.734375 221.554688 L 261.699219 244.429688 L 261.699219 147.03125 L 271.078125 168.09375 C 271.402344 168.820312 272.117188 169.253906 272.863281 169.253906 C 273.128906 169.253906 273.40625 169.199219 273.660156 169.085938 C 274.648438 168.648438 275.089844 167.488281 274.652344 166.503906 Z M 172.933594 144.3125 C 171.113281 144.3125 169.292969 145.523438 169.292969 147.933594 C 169.292969 152.703125 176.574219 152.703125 176.574219 147.933594 C 176.574219 145.523438 174.753906 144.3125 172.933594 144.3125 Z M 151 146.238281 C 155.507812 146.238281 158.171875 149.464844 158.171875 153.414062 C 158.171875 157.363281 155.253906 160.601562 151 160.601562 C 146.742188 160.601562 143.816406 157.363281 143.816406 153.414062 C 143.816406 149.460938 146.484375 146.238281 151 146.238281 Z M 172.933594 159.1875 C 171.113281 159.1875 169.292969 160.394531 169.292969 162.808594 C 169.292969 167.578125 176.574219 167.578125 176.574219 162.808594 C 176.574219 160.394531 174.753906 159.1875 172.933594 159.1875 Z M 275.09375 172.015625 C 274.839844 172.019531 274.585938 172.070312 274.339844 172.175781 C 273.34375 172.601562 272.882812 173.753906 273.308594 174.742188 L 274.070312 176.523438 C 274.390625 177.265625 275.117188 177.707031 275.871094 177.707031 C 276.128906 177.707031 276.394531 177.65625 276.644531 177.546875 C 277.636719 177.121094 278.085938 175.976562 277.664062 174.988281 L 276.902344 173.199219 C 276.578125 172.457031 275.851562 172.011719 275.09375 172.015625 Z M 275.09375 172.015625 " fill-opacity="1" fill-rule="nonzero"/></g></svg>